<?xml version="1.0" encoding="utf-8"?>
<!-- Generator: Adobe Illustrator 20.0.0, SVG Export Plug-In . SVG Version: 6.00 Build 0)  -->
<svg version="1.1" xmlns="http://www.w3.org/2000/svg" xmlns:xlink="http://www.w3.org/1999/xlink" x="0px" y="0px"
	 viewBox="0 0 114.8 114.8" style="enable-background:new 0 0 114.8 114.8;" xml:space="preserve">
<style type="text/css">
	.st0{fill:#FFFFFF;}
</style>
<g id="Layer_2_1_">
	<path class="st0" d="M108.5,50c0-0.3-0.1-0.6-0.1-0.9c-0.6-2.2-2.1-4.1-3.2-6.1c-0.1-0.2-0.2-0.3-0.4-0.5c-0.1-0.5-0.3-0.9-0.6-1.4
		c-1.6-2.8-3.2-7.2-5.6-9.9c0.1-0.2,0.1-0.5,0.1-0.7c-1.6-1.6-2.9-3.6-3.8-5.7c-0.3-0.1-0.6-0.1-1-0.1c-0.6,0-1.1,0.1-1.6,0.3
		c-0.3,1.2-0.6,2.4-0.8,3.6c-0.3,1.6-1.6,2.8-3.2,3.3c-0.5,0.7-0.9,1.5-1.1,2.4c-0.1-0.1-0.2-0.1-0.3-0.2c-1.7-1-3.3-1.8-5.1-2.5
		c-0.8-1.3-2.1-2.3-4-2.5c-3.5-0.3-7-2.4-10.5-3c-2.6-0.5-5.2-0.7-7.8-0.7c-0.9-0.1-1.9-0.1-2.8,0c-0.3-0.1-0.6-0.1-0.9-0.1
		c-1,0-2,0-2.9,0.1c-2.1,0.2-4.1,0.7-6,1.3c-0.5,0-1,0.1-1.5,0.3c-1.9,0.6-3.7,1.4-5.4,2.3c-3.1,0.9-5.9,2.3-7.8,4.5c0,0,0,0,0,0
		C21.4,40.1,11,49.2,7.3,61.1C5,68.5,5.7,76.6,7.7,84c1.5,5.5,3.8,15.5,11.5,14.6c1-0.1,1.9-0.4,2.7-0.9c1.5-0.5,2.7-1.6,3-3.3
		c0.2-1,0.2-1.9,0.3-2.9c0.8,0.6,1.8,1,3.1,1c3.5,0,5.1-2.9,4.8-5.5c0.3-0.2,0.6-0.4,0.9-0.7c-0.1-4,1.1-8.3,3-12
		c1-4.2,2.5-8.6,4.6-12.2c0.9-0.5,1.5-1.3,1.9-2.3c0.4-0.3,0.7-0.7,1-1.1c1-0.4,1.8-1,2.3-1.9c0.8-0.5,1.4-1.1,1.7-1.9
		c1-0.5,2.1-0.9,3.2-1.1c0.7-1.4,2-2.4,3.9-2.5c0.1-0.3,0.2-0.6,0.3-0.9c0.5-0.2,0.9-0.5,1.3-0.9c0.1,0,0.2-0.1,0.3-0.1
		c2.4-1.1,5.4-1,8-1.9c3-1,5.9-0.8,9.1-0.4c1,0.1,1.8-0.1,2.5-0.4c0.2,0,0.5,0,0.7,0c1.4-0.1,2.4-0.6,3.2-1.3c0.3,0,0.5,0,0.8,0.1
		c-0.1,0.2-0.1,0.5-0.2,0.7c-0.1,0.6-0.2,1.2-0.4,1.8c-1.3,1.7-2.2,3.6-2.7,5.7c-1.8,1.5-2.7,3.5-2.6,6.1c0.1,2.7,2.7,5,5.3,5.1
		c0.5,0.2,1.1,0.4,1.6,0.6c5.4,1.2,12.6-0.8,18.1-1.4c4.4-0.5,9.9-0.3,10.6-5.9C111.8,55,110.2,52.5,108.5,50z"/>
</g>
<g id="Layer_1">
	<g id="Capa_1">
		<g>
			<path d="M94.1,23.7c-0.3-0.2-0.7-0.2-0.9,0.1c-2.3,3.1-3.7,6.7-5.9,9.9C78,27,67.1,23.3,55.9,23.9s-21.1,5.9-29.7,12.6
				c-8.5,6.6-16.8,15.4-20,26.1C4.5,68,4,73.9,5.4,79.5c1.3,4.9,2.5,10.3,5.7,14.4c0,0.1,0,0.1,0.1,0.2c0.9,1.3,1.9,2.5,3.1,3.5
				c0.1,0.2,0.2,0.3,0.4,0.3c0.5,0.5,1.1,0.9,1.7,1.4l0,0c0.2,0.2,0.5,0.2,0.7,0.1c0,0,0,0,0.1,0c3.7-0.7,7.7-2.6,11.1-4.2
				c1.6-0.7,4.9-1.5,5.4-3.5c0.4-0.1,0.6-0.6,0.2-1c-0.1-0.1-0.2-0.2-0.2-0.3l0,0c-0.2-5,1.9-10.7,3.3-15.3
				c1.7-5.5,4.1-10.9,7.9-15.2c3.9-4.4,9.3-8.2,14.9-10.2c2.9-1,6.2-1.6,9.3-1.8c0.2,0,0.5,0,0.7,0c1.9,0.2,3.9,0.5,5.8,0.7
				c0.2,0,0.4,0.1,0.6,0.1c0.9,0.2,1.9,0.5,2.8,0.8c-0.7,1.6-2.2,5.1-2.3,5.3c-0.5,1-1,2-1.5,3c0,0.1,0,0.2,0,0.3
				c0.5,1.6,2,6.8,2.5,7c2,0.6,4.8,0.7,7.2,0.6l0,0c0.2,0.1,0.4,0.1,0.6,0c1.2,0,2.3-0.1,3.5-0.2c0.3,0.2,0.6,0.1,0.8-0.1
				C96.9,65,104,64,111,62.5c0.1,0,0.2-0.1,0.3-0.2c1.3-0.1,2.1-0.7,1.9-2.1c-1.1-9.3-17.5-34.9-17.5-34.9
				C95.2,24.7,94.7,24.2,94.1,23.7z M32.3,89.2c-1.4-1.4-2.7-2.8-3.9-4.4c-0.1-0.1-0.1-0.2-0.2-0.2c-0.2-0.6-0.3-1.2-0.4-1.8
				c1.3,1.6,2.7,3,4.2,4.4c0.2,0.1,0.3,0.2,0.5,0.1C32.4,88,32.3,88.6,32.3,89.2z M32.7,86.2c-1.9-1.7-3.6-3.5-5.1-5.6
				c-0.1-0.1-0.1-0.1-0.2-0.2c0-0.5-0.1-1-0.1-1.4c1.9,1.7,3.4,3.8,5.1,5.7c0.1,0.2,0.3,0.2,0.5,0.2C32.9,85.4,32.8,85.8,32.7,86.2z
				 M33.3,83.8c-1.9-2.2-3.7-4.5-5.9-6.4c0-0.6,0.1-1.2,0.1-1.8c2.3,2,3.6,4.9,6,6.9c0.1,0,0.1,0.1,0.2,0.1
				C33.5,83,33.4,83.4,33.3,83.8z M34,81.3c-2.4-2.1-3.7-5.3-6.3-7.2c0.1-0.7,0.2-1.3,0.3-2c1,1.2,2.1,2.2,3.1,3.4
				c1,1.3,1.9,2.6,3.1,3.7c0.1,0.1,0.2,0.1,0.3,0.1C34.3,80,34.1,80.7,34,81.3z M34.8,78.1c-1.2-1.1-2.1-2.6-3.2-3.9
				c-1-1.3-2.3-2.4-3.3-3.7c0.1-0.6,0.3-1.2,0.5-1.8c1,1.2,2.1,2.4,3.1,3.7c1,1.4,2,2.7,3.4,3.7C35.1,76.8,34.9,77.5,34.8,78.1z
				 M36.1,73.7c-0.1,0.4-0.3,0.8-0.4,1.2c-1.3-1-2.2-2.4-3.2-3.7c-1-1.3-2.2-2.5-3.2-3.8c0.2-0.5,0.3-0.9,0.5-1.4
				c1.6,2.8,4.2,5,6.4,7.4c0,0,0,0,0.1,0.1C36.1,73.5,36.1,73.6,36.1,73.7z M36.7,72.1c-2.1-2.3-4.8-4.5-6.2-7.3
				c0-0.1-0.1-0.2-0.2-0.2c0.2-0.4,0.4-0.8,0.6-1.1c1.9,2.5,3.8,4.9,6.2,6.9c0.1,0.1,0.1,0.1,0.2,0.1C37.1,71,36.9,71.6,36.7,72.1z
				 M37.8,69.3c-2.3-2-4.1-4.3-6-6.7c-0.1-0.1-0.2-0.2-0.3-0.2c0.3-0.5,0.6-0.9,0.9-1.4c1.9,2.2,3.9,4.3,5.9,6.5
				c0.1,0.1,0.2,0.2,0.3,0.2C38.3,68.2,38,68.7,37.8,69.3z M39,66.5c-1.9-2.2-4-4.3-5.9-6.5L33,59.9c0.3-0.5,0.7-0.9,1.1-1.4
				c1.7,2.2,3.4,4.6,5.4,6.5c0.1,0.1,0.1,0.1,0.2,0.1C39.5,65.6,39.3,66,39,66.5z M40.3,64.1C40.3,64,40.3,64,40.3,64.1
				c-2-1.9-3.7-4.3-5.4-6.5c0.3-0.3,0.6-0.7,0.9-1v0.1c0.9,1.1,2,2.1,2.9,3.3c0.7,1,1.4,2,2.5,2.7C40.9,63.1,40.6,63.6,40.3,64.1z
				 M37.9,54.6c1.5,2,2.9,4.2,4.5,6.2l0.1,0.1c-0.2,0.2-0.4,0.5-0.5,0.7c-1.1-0.7-1.8-1.9-2.5-2.9c-0.8-1-1.7-1.9-2.5-2.8
				c-0.1-0.1-0.1-0.1-0.2-0.2C37.1,55.3,37.5,54.9,37.9,54.6L37.9,54.6z M44.2,58.8c-0.3,0.3-0.6,0.7-0.9,1c-1.5-2-2.9-4.1-4.4-6.1
				c0,0,0,0-0.1-0.1c0.3-0.2,0.6-0.5,0.8-0.7l0,0C41.5,54.7,42.7,56.8,44.2,58.8L44.2,58.8z M45.8,57.3c-0.2,0.2-0.4,0.4-0.7,0.6
				c-1.4-1.9-2.7-4-4.5-5.7c0.4-0.3,0.9-0.7,1.3-1C43.4,53.1,44.3,55.3,45.8,57.3z M47.6,55.6c-0.3,0.3-0.6,0.6-0.9,0.8
				c-1.4-1.9-2.3-4.1-3.7-6c0.3-0.2,0.7-0.5,1-0.7C45.7,51.4,46.2,53.8,47.6,55.6z M50,53.6c-0.5,0.4-1,0.7-1.4,1.1
				c-1.4-1.8-2-4-3.6-5.7c0.4-0.2,0.7-0.5,1.1-0.7C47.6,49.9,48.8,51.8,50,53.6z M48.4,47.3c1.2,1.6,1.9,3.6,3,5.3l0,0
				c-0.1,0.1-0.2,0.2-0.3,0.2c-1.3-1.8-2.4-3.6-3.8-5.2c0.3-0.2,0.7-0.4,1-0.6C48.3,47.1,48.3,47.2,48.4,47.3z M50.6,45.8
				c1.2,1.6,2.3,3.4,3.6,5l0,0c-0.6,0.3-1.2,0.7-1.8,1.1c0,0,0-0.1-0.1-0.1c-1.1-1.7-1.8-3.7-3-5.3c0,0,0,0-0.1-0.1
				C49.7,46.3,50.1,46,50.6,45.8L50.6,45.8z M54.9,47.3c0.5,0.8,1,1.6,1.6,2.4c-0.4,0.2-0.8,0.4-1.2,0.6c0-0.1-0.1-0.2-0.1-0.2
				c-1.2-1.5-2.3-3.2-3.5-4.8c0.5-0.2,0.9-0.4,1.4-0.6c0,0,0,0.1,0.1,0.1C53.9,45.5,54.4,46.4,54.9,47.3z M59.3,48.7
				c-0.5,0.2-1.1,0.4-1.6,0.6c-0.7-0.9-1.3-1.7-1.8-2.7c-0.5-0.8-0.9-1.6-1.5-2.3c0.4-0.2,0.9-0.3,1.3-0.5
				C56.9,45.3,58.1,47,59.3,48.7z M58.4,43.1l3.6,4.8c-0.5,0.1-1.1,0.3-1.6,0.4c0-0.1,0-0.2-0.1-0.3c-1.1-1.6-2.2-3.1-3.4-4.7
				c0.5-0.1,0.9-0.3,1.4-0.4C58.4,43,58.4,43.1,58.4,43.1z M64.6,47.3c-0.4,0.1-0.8,0.2-1.2,0.2l-3.8-5c0.4-0.1,0.9-0.2,1.3-0.3
				c0.1,0,0.2,0,0.2,0C62.4,43.9,63.4,45.7,64.6,47.3z M67.6,46.9C67,47,66.3,47,65.7,47.1c0-0.2,0-0.4-0.1-0.5c-1.1-1.5-2-3-3-4.5
				C63.1,42,63.5,42,64,42C65,43.6,66.6,45.1,67.6,46.9z M70,46.8c-0.3,0-0.5-0.1-0.8-0.1c-0.1,0-0.2,0-0.3,0.1
				c-0.8-1.8-2.4-3.3-3.6-4.9c0.3,0,0.6,0,0.9,0c0,0.1,0,0.2,0.1,0.3C67.7,43.7,68.8,45.4,70,46.8L70,46.8z M69.3,42.4
				c1.1,1.4,2,3,3.1,4.4c-0.2,0-0.3,0-0.5,0l-0.1-0.1c-1.5-1.3-2.7-3.2-4-4.8c0.4,0,0.9,0.1,1.3,0.1C69.1,42.1,69.1,42.3,69.3,42.4z
				 M74.3,46.8c-0.1,0-0.2,0-0.3,0c0,0,0,0,0-0.1c-1.2-1.4-2.2-3-3.3-4.6c0.4,0,0.8,0.1,1.2,0.2C72.8,43.7,73.4,45.3,74.3,46.8z
				 M75.9,46.6c-0.1,0-0.1,0-0.2,0c-0.9-1.3-1.5-2.7-2.3-4.1c0.1,0,0.1,0,0.2,0c0,0,0,0.1,0.1,0.1C74.7,43.9,75.2,45.3,75.9,46.6z
				 M81.7,64c-0.2,0-0.4-0.1-0.6-0.1c-0.6-1.6-1.3-3.3-1.7-5c0.2,0,0.4,0.1,0.6,0.1c0,0.1,0,0.2,0.1,0.3c0.4,0.8,0.6,1.8,0.9,2.6
				C81.1,62.6,81.4,63.3,81.7,64z M84.1,64.4c-0.3,0-0.6-0.1-0.9-0.1c-0.4-0.8-0.7-1.6-1-2.4c-0.3-0.9-0.5-1.8-0.9-2.7
				c0.3,0,0.6,0.1,0.9,0.1c0,0.1,0,0.2,0.1,0.4C83.1,61.2,83.6,62.8,84.1,64.4z M85.5,64.4c-0.7-1.7-1.1-3.4-1.9-5
				c0.4,0,0.8,0,1.2,0c0.4,1.7,0.8,3.4,1.4,5C86,64.4,85.7,64.4,85.5,64.4z M88.3,64.3c-0.3,0-0.5,0.1-0.8,0.1c-0.7-1.6-1-3.3-1.5-5
				c0.3,0,0.6,0,0.8,0C87.7,60.9,87.8,62.6,88.3,64.3z M89.6,64.1c-0.6-1.6-0.7-3.3-1.4-4.9c0.3,0,0.6-0.1,0.9-0.1
				c0.6,1.6,1,3.3,1.5,4.9C90.3,64,90,64.1,89.6,64.1z M92,63.8c-0.6-1.6-0.9-3.3-1.5-4.8c0.3,0,0.6-0.1,0.8-0.1l0,0
				c1.1,1.4,1.3,3.2,1.9,4.8C92.8,63.7,92.4,63.7,92,63.8z M94.5,63.4c-0.6-1.6-0.9-3.3-1.8-4.8c0.5-0.1,1-0.2,1.5-0.3
				c0.8,1.6,1.4,3.2,2,4.9C95.6,63.3,95,63.3,94.5,63.4z M97.4,63.1c-0.6-1.7-1.2-3.4-2-5c0.4-0.1,0.9-0.2,1.3-0.3l0,0
				c0.5,1.8,1.2,3.4,1.7,5.2C98.1,63,97.8,63,97.4,63.1z M99.7,62.8c-0.5-1.8-1.2-3.4-1.7-5.2c0,0,0-0.1-0.1-0.1
				c0.4-0.1,0.8-0.2,1.2-0.3v0.1c0.5,1.8,0.8,3.7,1.5,5.4C100.3,62.8,100,62.8,99.7,62.8z M102.8,62.5c-0.3,0-0.6,0.1-0.8,0.1
				c-0.8-1.7-1-3.6-1.5-5.4c0-0.1-0.1-0.2-0.1-0.2c0.3-0.1,0.6-0.1,0.9-0.2c0.6,1.8,1,3.7,1.4,5.5C102.7,62.4,102.7,62.5,102.8,62.5
				z M103.9,62.3c0-0.1,0-0.2,0-0.2c-0.4-1.9-0.9-3.8-1.5-5.7c0.3-0.1,0.7-0.2,1-0.2c0,0.1,0,0.2,0.1,0.4c1.1,1.7,0.9,3.8,1.6,5.6
				C104.7,62.2,104.3,62.3,103.9,62.3z M107.5,61.8c-0.4,0.1-0.7,0.1-1.1,0.2c-0.9-1.9-0.6-4.2-1.8-6c0.4-0.1,0.7-0.2,1.1-0.2
				C106.6,57.6,107,59.7,107.5,61.8L107.5,61.8z M109.1,58.8c0.2,0.8,0.4,1.7,0.7,2.4c-0.3,0.1-0.7,0.2-1,0.3
				c-0.5-2-0.9-4.2-1.8-6.1c0.4-0.1,0.9-0.2,1.3-0.2C108.5,56.4,108.8,57.6,109.1,58.8z M109.4,53.6L109.4,53.6
				C98.8,55.4,87.8,60.4,77,57c1.8-4.1,6.7-13.2,4.7-13.6c-0.1-0.1-0.2-0.1-0.3-0.2c-6.8-2.1-13.7-3.3-20.7-2.2
				c-6.6,1-12.5,4.2-17.9,7.9C31.6,56.6,22.7,70.5,27,85.1l-0.1,0.1c-4.5,3.4-10,5.1-14.9,7.7c-2.9-3.9-4.1-9-5.3-13.6
				c-1.5-5.8-0.7-11.7,1-17.2c3-10.1,11.5-18.3,19.4-24.6c8.1-6.5,17.5-11.8,28.1-12.2c19.5-0.8,32.3,10,32.3,9.9
				c0.2,0,0.4,0,0.6-0.2c2.2-3.1,3.6-6.7,5.8-9.8c0.5,0.5,0.8,1,1.2,1.5c0.1,0.1,0.1,0.2,0.2,0.2C97.9,31,109.5,51.4,109.4,53.6z"/>
		</g>
	</g>
</g>
</svg>
